<svg xmlns="http://www.w3.org/2000/svg" viewBox="0 0 500 500"><g id="freepik--background-complete--inject-141"><path d="M415.59,336.33l14-.28,6.89-.11c2.29-.05,4.57,0,6.86-.06l-.45.45-.05-11.72.5.5L429.45,325c-4.62,0-9.24-.11-13.86-.16l.27-.27c0,1.92-.09,3.85-.13,5.8Zm0,0-.15-5.8c0-2-.11-3.93-.13-5.92v-.27h.28c4.62-.06,9.24-.16,13.86-.17l13.87-.06h.5v.5l-.06,11.72v.45h-.44c-2.34,0-4.68,0-7,0l-7-.11Z" style="fill:#ebebeb"></path><path d="M431.06,351.1l14-.27,6.89-.12c2.29,0,4.57,0,6.86,0l-.45.44,0-11.71.5.49-13.87-.06c-4.62,0-9.24-.11-13.86-.16l.27-.27c0,1.91-.09,3.84-.13,5.8Zm0,0-.15-5.8c0-1.95-.11-3.93-.13-5.91v-.27h.28c4.62-.05,9.24-.16,13.86-.16l13.87-.06h.5v.51l-.05,11.71v.45h-.44c-2.34,0-4.68,0-7-.06l-7-.11Z" style="fill:#ebebeb"></path><path d="M176.64,149.79l14-.28,6.9-.11c2.29-.05,4.57,0,6.86-.06l-.45.45-.05-11.72.5.5-13.87-.06c-4.62,0-9.25-.12-13.87-.17l.28-.27c0,1.92-.09,3.85-.14,5.8Zm0,0-.14-5.8c0-2-.11-3.93-.13-5.92v-.27h.27c4.62-.05,9.25-.16,13.87-.17l13.87-.06h.5v.5l-.05,11.72v.45h-.44c-2.34,0-4.68,0-7-.06l-7-.11Z" style="fill:#ebebeb"></path><path d="M192.11,164.57l14-.28,6.9-.11c2.29-.05,4.57,0,6.86-.06l-.45.45-.05-11.72.5.5L206,153.28c-4.62,0-9.25-.11-13.87-.16l.28-.27c0,1.92-.09,3.85-.14,5.8Zm0,0-.14-5.8c0-2-.11-3.94-.13-5.92v-.27h.27c4.62,0,9.25-.15,13.87-.16l13.87-.06h.5v.5l-.05,11.72V165h-.44c-2.34,0-4.68,0-7,0l-7-.11Z" style="fill:#ebebeb"></path><path d="M308.18,288.46l14-.28,6.9-.11c2.29-.05,4.57,0,6.85-.06l-.44.45-.05-11.72.49.5-13.86-.07c-4.62,0-9.25-.11-13.87-.16l.27-.27c0,1.92-.08,3.85-.13,5.8Zm0,0-.14-5.8c-.05-2-.11-3.94-.13-5.92v-.27h.27c4.62,0,9.25-.15,13.87-.16l13.86-.06h.51v.5l-.05,11.72v.45h-.45c-2.33,0-4.67,0-7,0l-7-.11Z" style="fill:#ebebeb"></path><path d="M323.91,303.23l14-.27,6.89-.12c2.3,0,4.58,0,6.86,0l-.44.44-.06-11.72.5.5L337.78,292c-4.63,0-9.25-.11-13.87-.16l.27-.28c0,1.92-.08,3.85-.13,5.81Zm0,0-.14-5.8c0-1.95-.12-3.93-.13-5.92v-.27h.28c4.62-.05,9.24-.16,13.87-.16l13.86-.06h.5v.5l-.05,11.72v.45h-.45c-2.33,0-4.68,0-7-.06l-7-.11Z" style="fill:#ebebeb"></path><path d="M41.21,351.1l14-.27,6.89-.12c2.3,0,4.58,0,6.86,0l-.44.44-.06-11.71.5.49-13.86-.06c-4.63,0-9.25-.11-13.87-.16l.27-.27c0,1.91-.08,3.84-.13,5.8Zm0,0-.14-5.8c0-1.95-.11-3.93-.13-5.91v-.27h.27c4.62-.05,9.24-.16,13.87-.16l13.86-.06h.51v.51l0,11.71v.45h-.45c-2.33,0-4.67,0-7-.06l-7-.11Z" style="fill:#ebebeb"></path><path d="M56.68,63.85l14-.28,6.89-.11c2.3-.05,4.58,0,6.86-.05l-.44.44-.06-11.72.5.5-13.86-.06c-4.62,0-9.25-.11-13.87-.17l.27-.27c0,1.92-.08,3.85-.13,5.8Zm0,0-.14-5.8c0-2-.11-3.93-.13-5.92v-.27h.27c4.62,0,9.25-.16,13.87-.16l13.86-.07h.51v.5l0,11.72v.45h-.45c-2.33,0-4.67,0-7-.06l-7-.11Z" style="fill:#ebebeb"></path><path d="M41.21,78.63l14-.28,6.89-.11c2.3,0,4.58,0,6.86-.06l-.44.45-.06-11.72.5.5-13.86-.06c-4.63,0-9.25-.12-13.87-.17l.27-.27c0,1.92-.08,3.85-.13,5.8Zm0,0-.14-5.8c0-2-.11-3.93-.13-5.92v-.27h.27c4.62-.06,9.24-.16,13.87-.17l13.86-.06h.51v.5l0,11.72v.45h-.45c-2.33,0-4.67,0-7,0l-7-.11Z" style="fill:#ebebeb"></path><path d="M431.06,63.85l14-.28,6.89-.11c2.29-.05,4.57,0,6.86-.05l-.45.44,0-11.72.5.5-13.87-.06c-4.62,0-9.24-.11-13.86-.17l.27-.27c0,1.92-.09,3.85-.13,5.8Zm0,0-.15-5.8c0-2-.11-3.93-.13-5.92v-.27h.28c4.62,0,9.24-.16,13.86-.16l13.87-.07h.5v.5l-.05,11.72v.45h-.44c-2.34,0-4.68,0-7-.06l-7-.11Z" style="fill:#ebebeb"></path><path d="M339.64,288.46l14-.28,6.89-.11c2.29-.05,4.57,0,6.86-.06l-.45.45-.05-11.72.5.5-13.87-.07c-4.62,0-9.24-.11-13.86-.16l.27-.27c0,1.92-.09,3.85-.13,5.8Zm0,0-.15-5.8c0-2-.11-3.94-.13-5.92v-.27h.28c4.62,0,9.24-.15,13.86-.16l13.87-.06h.5v.5l-.05,11.72v.45h-.44c-2.34,0-4.68,0-7,0l-7-.11Z" style="fill:#ebebeb"></path><rect x="57.1" y="178.58" width="44.34" height="44.34" transform="translate(280.02 121.48) rotate(90)" style="fill:#dbdbdb"></rect><rect x="63.97" y="185.46" width="30.59" height="30.59" transform="translate(280.02 121.48) rotate(90)" style="fill:#fff"></rect><polygon points="94.56 185.46 63.97 185.46 63.97 216.05 94.56 185.46" style="fill:#ebebeb"></polygon><rect x="52.76" y="178.58" width="4.33" height="44.34" transform="translate(109.86 401.5) rotate(180)" style="fill:#c7c7c7"></rect><rect x="111.99" y="178.58" width="44.34" height="44.34" transform="translate(334.91 66.6) rotate(90)" style="fill:#dbdbdb"></rect><rect x="118.86" y="185.46" width="30.59" height="30.59" transform="translate(334.91 66.59) rotate(90)" style="fill:#fff"></rect><polygon points="140.47 185.46 118.86 185.46 118.86 207.06 140.47 185.46" style="fill:#ebebeb"></polygon><rect x="107.65" y="178.58" width="4.33" height="44.34" transform="translate(219.64 401.5) rotate(180)" style="fill:#c7c7c7"></rect><rect x="77.74" y="212.9" width="57.95" height="99.23" transform="translate(369.22 155.8) rotate(90)" style="fill:#dbdbdb"></rect><rect x="84.9" y="220.14" width="43.62" height="84.74" transform="translate(369.22 155.8) rotate(90)" style="fill:#fff"></rect><polygon points="119.89 240.7 64.34 240.7 64.34 269.29 119.89 240.7" style="fill:#ebebeb"></polygon><rect x="52.76" y="233.54" width="4.33" height="57.95" transform="translate(109.86 525.02) rotate(180)" style="fill:#c7c7c7"></rect><rect x="57.1" y="69.01" width="99.23" height="99.23" transform="translate(225.34 11.92) rotate(90)" style="fill:#dbdbdb"></rect><rect x="64.34" y="76.26" width="84.75" height="84.73" style="fill:#fff"></rect><path d="M64.34,137.27c12.88-12.81,49.38-49.13,61.11-61H64.34Z" style="fill:#ebebeb"></path><rect x="52.76" y="69.01" width="4.33" height="99.23" transform="translate(109.86 237.26) rotate(180)" style="fill:#c7c7c7"></rect><rect x="328.16" y="367.07" width="66.38" height="63.78" style="fill:#ebebeb"></rect><rect x="394.54" y="367.07" width="25.23" height="63.78" style="fill:#c7c7c7"></rect><polygon points="328.16 398.96 394.54 398.96 342.7 400.6 328.16 398.96" style="fill:#c7c7c7"></polygon><polygon points="394.54 423.15 328.16 423.15 380 424.79 394.54 423.15" style="fill:#c7c7c7"></polygon><polygon points="328.16 381.13 370.2 381.13 332.83 382.47 328.16 381.13" style="fill:#c7c7c7"></polygon><polygon points="394.54 413.76 352.49 413.76 389.87 415.1 394.54 413.76" style="fill:#c7c7c7"></polygon><polygon points="344.08 374.03 391.5 374.03 383.6 374.84 344.08 374.03" style="fill:#c7c7c7"></polygon><polygon points="334.61 405.8 382.04 405.8 374.13 406.6 334.61 405.8" style="fill:#c7c7c7"></polygon><polygon points="363.77 387.2 394.54 387.2 400.03 389.35 363.77 387.2" style="fill:#ebebeb"></polygon><polygon points="319.69 387.2 350.45 387.2 355.94 389.35 319.69 387.2" style="fill:#dbdbdb"></polygon><polygon points="359.16 415.87 328.4 415.87 322.9 418.01 359.16 415.87" style="fill:#dbdbdb"></polygon><polygon points="394.54 408.59 419.24 408.59 424.74 410.74 394.54 408.59" style="fill:#c7c7c7"></polygon><polygon points="403.16 398.96 422.32 398.96 419.76 397.21 403.16 398.96" style="fill:#c7c7c7"></polygon></g><g id="freepik--Plant--inject-141"><path d="M432.58,344c-5.07,0-15.35-4-13.61-7.34s7,.95,7.23,1.08c-.15-.25-3.58-6.95-.52-8.11s6.14,2.07,6.9,5.78c.77-3.71,3.78-7,6.91-5.78s-.38,7.86-.52,8.11c.22-.13,5.54-4.37,7.23-1.08S437.66,344,432.58,344Z" style="fill:#455a64"></path><path d="M458.22,371.4a65.12,65.12,0,0,1-1.29,8.33c-1.21,5.45-3.19,10.74-6,14.28a50.5,50.5,0,0,1-36.74,0c-6.06-7.56-8.22-23.12-7.36-31.13,1.57-14.45,10.2-20,17.7-21.95h0a31.73,31.73,0,0,1,8-1c7.35,0,23.53,2.66,25.73,23A45.83,45.83,0,0,1,458.22,371.4Z" style="fill:#238882"></path><path d="M433.06,339.89c.21,4.8.33,9.6.42,14.4s.11,9.61.13,14.41-.05,9.6-.19,14.41a116.78,116.78,0,0,1-1,14.36l.19-1.79.1-1.79c.08-1.2.08-2.4.12-3.6.06-2.4.09-4.79.1-7.19q.06-7.2,0-14.4l0-14.4C433,349.5,433,344.7,433.06,339.89Z" style="fill:#fff"></path><path d="M429.94,340a62.18,62.18,0,0,0-1.72,7c-.47,2.35-.82,4.72-1.12,7.09a134.35,134.35,0,0,0-1,14.31l0,3.59c0,1.19.05,2.39.06,3.58,0,2.4.22,4.78.33,7.17,0,1.2.16,2.39.27,3.58l.32,3.58.81,7.15c-.39-2.37-.78-4.74-1.13-7.11l-.41-3.58c-.13-1.19-.28-2.38-.36-3.58-.19-2.39-.37-4.79-.42-7.19,0-1.2-.1-2.4-.09-3.6v-3.61A125.54,125.54,0,0,1,426.6,354,70.57,70.57,0,0,1,429.94,340Z" style="fill:#fff"></path><path d="M425.78,340.59a29.61,29.61,0,0,0-3.64,6.34c-.24.56-.5,1.11-.72,1.68l-.61,1.72-.31.87c-.09.29-.17.58-.25.88l-.49,1.76a56.48,56.48,0,0,0-1.66,14.48l.08,3.65.35,3.65.18,1.82c.09.6.21,1.2.31,1.8l.62,3.61a17.8,17.8,0,0,0,.39,1.79l.43,1.78.87,3.57,2.17,7c-.85-2.3-1.65-4.62-2.48-6.93l-1-3.56-.48-1.77c-.16-.6-.33-1.19-.43-1.8l-.68-3.62c-.11-.6-.23-1.21-.33-1.81l-.19-1.84-.39-3.67-.11-3.69a55,55,0,0,1,1.83-14.61l.54-1.77c.09-.29.17-.59.27-.88l.33-.86.66-1.73c.24-.56.51-1.12.77-1.67A28.23,28.23,0,0,1,425.78,340.59Z" style="fill:#fff"></path><path d="M422.72,341.42a26.78,26.78,0,0,0-5,5.51,32.36,32.36,0,0,0-3.55,6.51,38,38,0,0,0-2.79,14.45c0,1.24.06,2.47.1,3.7s.2,2.47.41,3.69l.28,1.84.38,1.81c.12.61.25,1.22.41,1.82l.45,1.8c.32,1.2.71,2.38,1.06,3.57l1.25,3.5,1.38,3.47,1.52,3.41A72.81,72.81,0,0,1,413,382.68c-.32-1.2-.7-2.4-.93-3.63l-.39-1.83-.3-1.85c-.23-1.23-.3-2.49-.45-3.73s-.16-2.5-.12-3.76a37.39,37.39,0,0,1,3-14.64,32.47,32.47,0,0,1,3.74-6.49,30,30,0,0,1,2.42-2.86A20.46,20.46,0,0,1,422.72,341.42Z" style="fill:#fff"></path><path d="M436,340a69.71,69.71,0,0,1,3.34,14,123.14,123.14,0,0,1,1.14,14.36V372c0,1.2-.06,2.4-.09,3.6-.05,2.41-.23,4.8-.42,7.19-.07,1.2-.22,2.39-.36,3.59l-.41,3.57q-.52,3.57-1.13,7.11l.82-7.14.31-3.58c.11-1.19.23-2.39.27-3.58.12-2.39.31-4.78.33-7.17,0-1.2.08-2.4.06-3.59l0-3.59a137,137,0,0,0-1-14.31c-.3-2.37-.65-4.74-1.13-7.08A59.58,59.58,0,0,0,436,340Z" style="fill:#fff"></path><path d="M440.15,340.62a28.1,28.1,0,0,1,3.93,6.21c.26.56.53,1.11.77,1.68l.66,1.72.33.86c.1.29.18.59.27.88l.54,1.77a55,55,0,0,1,1.83,14.62l-.11,3.69-.38,3.67-.2,1.83c-.09.61-.22,1.21-.33,1.82l-.68,3.62a17.94,17.94,0,0,1-.43,1.79l-.48,1.78-1,3.55c-.82,2.32-1.63,4.63-2.47,6.93l2.16-7,.87-3.56.44-1.78c.14-.6.3-1.19.38-1.79l.62-3.61c.1-.61.22-1.21.31-1.81l.18-1.82.35-3.64.08-3.66a56.53,56.53,0,0,0-1.66-14.48l-.49-1.76c-.08-.29-.16-.59-.25-.88l-.3-.86-.62-1.73c-.22-.56-.48-1.11-.72-1.68A29.61,29.61,0,0,0,440.15,340.62Z" style="fill:#fff"></path><path d="M443.21,341.45a21.24,21.24,0,0,1,2.8,2.47,30,30,0,0,1,2.42,2.86,32.58,32.58,0,0,1,3.75,6.5,37.53,37.53,0,0,1,3,14.64c0,1.25-.07,2.5-.13,3.75s-.22,2.5-.45,3.73l-.29,1.85-.4,1.84c-.23,1.23-.61,2.42-.93,3.63a73.62,73.62,0,0,1-5.68,13.81l1.51-3.41,1.39-3.46,1.24-3.51c.35-1.19.75-2.37,1.06-3.57l.45-1.8c.17-.6.3-1.2.41-1.81l.38-1.82.28-1.84c.22-1.22.28-2.45.41-3.68s.14-2.47.1-3.71a37.85,37.85,0,0,0-2.79-14.45,32.74,32.74,0,0,0-3.54-6.5A26.91,26.91,0,0,0,443.21,341.45Z" style="fill:#fff"></path><path d="M431.35,357.05a33.57,33.57,0,0,1,2.12,3.21h-.39c.37-.65.75-1.29,1.14-1.91.2-.32.4-.63.61-.94s.42-.61.65-.91c-.13.35-.3.69-.45,1s-.32.67-.49,1c-.34.66-.7,1.31-1.07,2l-.2.34-.19-.34A32.37,32.37,0,0,1,431.35,357.05Z" style="fill:#fff"></path><path d="M433.12,355.39a14.2,14.2,0,0,1,.16,5,13.6,13.6,0,0,1-.16-5Z" style="fill:#fff"></path><path d="M448,340a33,33,0,0,1,0,3.85l-.33-.21c.66-.35,1.32-.68,2-1q.49-.24,1-.45c.34-.14.68-.29,1-.41-.31.22-.62.41-.94.62l-.95.57c-.65.36-1.3.72-2,1.05l-.35.18,0-.39A35.37,35.37,0,0,1,448,340Z" style="fill:#fff"></path><path d="M450.37,339.61a13,13,0,0,1-1.09,2.25,12.1,12.1,0,0,1-1.48,2,11.9,11.9,0,0,1,1.09-2.24A12,12,0,0,1,450.37,339.61Z" style="fill:#fff"></path><path d="M444,351.53a32.47,32.47,0,0,1,1.74,3.43l-.39,0q.66-.9,1.35-1.77c.24-.29.47-.58.72-.86s.49-.56.75-.83c-.18.33-.38.65-.57,1s-.4.63-.6.94c-.42.61-.84,1.22-1.29,1.81l-.23.31-.15-.35A32.46,32.46,0,0,1,444,351.53Z" style="fill:#fff"></path><path d="M446,350.09a12.29,12.29,0,0,1,0,2.5,11.64,11.64,0,0,1-.43,2.46,13.53,13.53,0,0,1,.42-5Z" style="fill:#fff"></path><path d="M436.78,389.47a31.77,31.77,0,0,1,2.12,3.21h-.38c.36-.65.74-1.29,1.13-1.91.2-.32.4-.63.61-.94s.43-.61.66-.91c-.14.35-.3.69-.45,1l-.5,1c-.34.66-.69,1.31-1.07,1.95l-.19.34-.19-.34A32.44,32.44,0,0,1,436.78,389.47Z" style="fill:#fff"></path><path d="M438.55,387.81a13.14,13.14,0,0,1,.31,2.48,12.4,12.4,0,0,1-.15,2.5,13.6,13.6,0,0,1-.16-5Z" style="fill:#fff"></path><path d="M419.89,345.71a33.15,33.15,0,0,1,1.1,3.68l-.37-.11c.54-.52,1.08-1,1.64-1.51l.86-.71c.29-.23.58-.47.88-.69-.23.3-.48.57-.72.86l-.76.81q-.78.79-1.59,1.56l-.29.26-.08-.37A30.21,30.21,0,0,1,419.89,345.71Z" style="fill:#fff"></path><path d="M422.06,344.63a12.65,12.65,0,0,1-.42,2.46,13.53,13.53,0,0,1-.86,2.35,12,12,0,0,1,.42-2.47A11.75,11.75,0,0,1,422.06,344.63Z" style="fill:#fff"></path><path d="M459.35,359.54a32.55,32.55,0,0,1-.41,3.82l-.29-.25c.69-.27,1.39-.52,2.09-.75l1.06-.33,1.09-.29c-.33.19-.67.34-1,.51l-1,.46c-.68.29-1.37.56-2.07.82l-.36.13.07-.37A30.29,30.29,0,0,1,459.35,359.54Z" style="fill:#fff"></path><path d="M461.77,359.38a11.84,11.84,0,0,1-1.35,2.11,12.22,12.22,0,0,1-1.7,1.83,12.83,12.83,0,0,1,1.35-2.11A12.22,12.22,0,0,1,461.77,359.38Z" style="fill:#fff"></path><path d="M424,373.66a33.46,33.46,0,0,1,2.15,3.18h-.38c.35-.65.72-1.29,1.11-1.93.2-.31.39-.63.6-.94s.41-.61.64-.91c-.13.35-.29.68-.44,1s-.31.67-.48,1c-.33.67-.68,1.32-1,2l-.2.33-.19-.33A31.4,31.4,0,0,1,424,373.66Z" style="fill:#fff"></path><path d="M425.78,372a13.61,13.61,0,0,1,.22,5,14.21,14.21,0,0,1-.22-5Z" style="fill:#fff"></path><path d="M410.77,382.16A31.14,31.14,0,0,1,414,384.3l-.36.15c.09-.74.19-1.47.32-2.21.06-.36.13-.73.2-1.09s.15-.73.25-1.09c0,.37,0,.75,0,1.12s0,.74-.07,1.11c-.06.74-.14,1.48-.24,2.21l-.05.39-.3-.24A32.82,32.82,0,0,1,410.77,382.16Z" style="fill:#fff"></path><path d="M411.76,379.94a13.72,13.72,0,0,1,2.06,4.54,12.69,12.69,0,0,1-1.23-2.18A12,12,0,0,1,411.76,379.94Z" style="fill:#fff"></path><path d="M407.48,348.44A31.48,31.48,0,0,1,411,350l-.32.21c-.05-.74-.09-1.48-.1-2.22,0-.37,0-.74,0-1.12s0-.74,0-1.11c.08.36.13.73.19,1.1s.1.73.14,1.1c.08.74.15,1.48.19,2.22l0,.39-.34-.17A31.6,31.6,0,0,1,407.48,348.44Z" style="fill:#fff"></path><path d="M408,346.08a12.7,12.7,0,0,1,1.63,1.9,13.35,13.35,0,0,1,1.26,2.17,12.7,12.7,0,0,1-1.63-1.9A13.35,13.35,0,0,1,408,346.08Z" style="fill:#fff"></path><path d="M452.76,372.81a33.37,33.37,0,0,1,1.81,3.39l-.38,0c.42-.61.85-1.21,1.31-1.79.22-.3.45-.59.69-.88s.48-.57.74-.84c-.17.34-.36.65-.55,1l-.58.95c-.4.62-.82,1.24-1.25,1.84l-.23.32-.15-.36A31.52,31.52,0,0,1,452.76,372.81Z" style="fill:#fff"></path><path d="M454.68,371.32a13.09,13.09,0,0,1,.07,2.5,12.31,12.31,0,0,1-.38,2.47,13.86,13.86,0,0,1,.31-5Z" style="fill:#fff"></path><polygon points="410.94 394.37 454.57 394.37 450.18 430.85 415.33 430.85 410.94 394.37" style="fill:#455a64"></polygon><polygon points="410.94 394.37 411.93 402.6 453.82 400.58 454.57 394.37 410.94 394.37" style="fill:#263238"></polygon><rect x="408.2" y="389.76" width="49.12" height="6.52" style="fill:#455a64"></rect></g><g id="freepik--Table--inject-141"><polygon points="36.71 430.85 90.03 430.61 143.35 430.52 250 430.35 356.64 430.52 409.97 430.61 463.29 430.85 409.97 431.1 356.64 431.19 250 431.35 143.35 431.18 90.03 431.1 36.71 430.85" style="fill:#263238"></polygon></g><g id="freepik--Screen--inject-141"><rect x="210.45" y="82.29" width="226.33" height="164.9" style="fill:#fff"></rect><path d="M437.28,247.69H210V81.79H437.28Zm-226.33-1H436.28V82.79H211Z" style="fill:#ebebeb"></path><rect x="210.45" y="82.29" width="226.33" height="11.61" style="fill:#238882"></rect><path d="M220.16,88.1a2.62,2.62,0,1,1-2.62-2.62A2.62,2.62,0,0,1,220.16,88.1Z" style="fill:#a6a6a6"></path><path d="M230.86,88.1a2.62,2.62,0,1,1-2.62-2.62A2.62,2.62,0,0,1,230.86,88.1Z" style="fill:#455a64"></path><path d="M241.56,88.1a2.62,2.62,0,1,1-2.62-2.62A2.62,2.62,0,0,1,241.56,88.1Z" style="fill:#fff"></path><rect x="226.03" y="125.71" width="7.77" height="2.84" style="fill:#455a64"></rect><rect x="239.46" y="125.71" width="90.39" height="2.84" style="fill:#455a64"></rect><rect x="334.62" y="125.71" width="14.75" height="2.84" style="fill:#238882"></rect><rect x="358.22" y="163.66" width="14.75" height="2.84" style="fill:#455a64"></rect><rect x="352.57" y="125.71" width="49.73" height="2.84" style="fill:#a6a6a6"></rect><rect x="233.8" y="133.3" width="7.76" height="2.84" style="fill:#455a64"></rect><rect x="247.03" y="133.3" width="58.46" height="2.84" style="fill:#a6a6a6"></rect><rect x="332.6" y="163.66" width="22.11" height="2.84" style="fill:#a6a6a6"></rect><rect x="239.46" y="156.07" width="55.83" height="2.84" style="fill:#a6a6a6"></rect><rect x="247.03" y="140.89" width="39.17" height="2.84" style="fill:#238882"></rect><rect x="344.48" y="148.48" width="39.17" height="2.84" style="fill:#a6a6a6"></rect><rect x="290.55" y="140.89" width="63.86" height="2.84" style="fill:#a6a6a6"></rect><rect x="239.46" y="163.66" width="88.09" height="2.84" style="fill:#238882"></rect><rect x="350.93" y="133.3" width="64.69" height="2.84" style="fill:#238882"></rect><rect x="309.16" y="133.3" width="38.56" height="2.84" style="fill:#455a64"></rect><rect x="381.58" y="140.89" width="25.14" height="2.84" style="fill:#455a64"></rect><rect x="233.8" y="140.89" width="7.76" height="2.84" style="fill:#455a64"></rect><rect x="226.03" y="148.48" width="7.77" height="2.84" style="fill:#a6a6a6"></rect><rect x="239.46" y="148.48" width="45.89" height="2.84" style="fill:#455a64"></rect><rect x="247.03" y="171.26" width="45.89" height="2.84" style="fill:#455a64"></rect><rect x="333.91" y="178.85" width="59.12" height="2.84" style="fill:#238882"></rect><rect x="296.65" y="171.26" width="47.33" height="2.84" style="fill:#238882"></rect><rect x="288.53" y="178.85" width="41.37" height="2.84" style="fill:#455a64"></rect><rect x="247.03" y="178.85" width="13.29" height="2.84" style="fill:#a6a6a6"></rect><rect x="298.45" y="156.07" width="50.91" height="2.84" style="fill:#455a64"></rect><rect x="352.57" y="156.07" width="55.79" height="2.84" style="fill:#238882"></rect><rect x="290.02" y="148.48" width="50.85" height="2.84" style="fill:#238882"></rect><rect x="226.03" y="156.07" width="7.77" height="2.84" style="fill:#455a64"></rect><rect x="226.03" y="163.66" width="7.77" height="2.84" style="fill:#455a64"></rect><rect x="233.8" y="171.26" width="7.76" height="2.84" style="fill:#a6a6a6"></rect><rect x="233.8" y="178.85" width="7.76" height="2.84" style="fill:#455a64"></rect><rect x="226.03" y="185.21" width="7.77" height="2.84" style="fill:#455a64"></rect><rect x="239.46" y="185.21" width="91.05" height="2.84" style="fill:#455a64"></rect><rect x="233.8" y="192.8" width="7.76" height="2.84" style="fill:#455a64"></rect><rect x="247.03" y="192.8" width="58.46" height="2.84" style="fill:#a6a6a6"></rect><rect x="239.46" y="215.57" width="55.83" height="2.84" style="fill:#a6a6a6"></rect><rect x="247.03" y="200.39" width="39.17" height="2.84" style="fill:#238882"></rect><rect x="290.55" y="200.39" width="63.86" height="2.84" style="fill:#a6a6a6"></rect><rect x="239.46" y="223.16" width="88.09" height="2.84" style="fill:#238882"></rect><rect x="350.93" y="192.8" width="64.69" height="2.84" style="fill:#238882"></rect><rect x="309.16" y="192.8" width="38.56" height="2.84" style="fill:#455a64"></rect><rect x="381.58" y="200.39" width="25.14" height="2.84" style="fill:#455a64"></rect><rect x="233.8" y="200.39" width="7.76" height="2.84" style="fill:#455a64"></rect><rect x="226.03" y="207.98" width="7.77" height="2.84" style="fill:#a6a6a6"></rect><rect x="239.46" y="207.98" width="45.89" height="2.84" style="fill:#455a64"></rect><rect x="298.45" y="215.57" width="50.91" height="2.84" style="fill:#455a64"></rect><rect x="290.02" y="207.98" width="50.85" height="2.84" style="fill:#238882"></rect><rect x="226.03" y="215.57" width="7.77" height="2.84" style="fill:#455a64"></rect><path d="M230.83,118.24a.67.67,0,0,1-.47,1.15.7.7,0,0,1-.49-.19l-3-3a.07.07,0,0,1-.06-.06.07.07,0,0,0,0,0,.26.26,0,0,1,0-.08.05.05,0,0,1,0,0s0-.06,0-.07,0,0,0,0v-.08s0,0,0-.06,0,0,0,0v-.08s0,0,0,0,0,0,0-.09,0,0,0,0a.73.73,0,0,1,0-.09,0,0,0,0,1,0,0,.13.13,0,0,1,.07-.08l3-3a.71.71,0,0,1,1,0,.67.67,0,0,1,0,1l-2.52,2.55Z" style="fill:#238882"></path><path d="M233.55,118.58l2.61-6.22a.58.58,0,0,1,.77-.3.56.56,0,0,1,.3.75L234.62,119a.59.59,0,0,1-.54.35.49.49,0,0,1-.21,0A.58.58,0,0,1,233.55,118.58Z" style="fill:#238882"></path><path d="M242.39,116.07a0,0,0,0,1,0,0,.2.2,0,0,1-.08.08l-3,3a.7.7,0,0,1-1,0,.67.67,0,0,1,0-1l2.53-2.55-2.53-2.55a.67.67,0,0,1,0-1,.71.71,0,0,1,1,0l3,3a.2.2,0,0,1,.08.08s0,0,0,0a.9.9,0,0,1,.05.09s0,0,0,0a.21.21,0,0,0,0,.1s0,0,0,0v.08s0,0,0,0,0,0,0,0v.09s0,0,0,0a.34.34,0,0,0,0,.1s0,0,0,0Z" style="fill:#238882"></path></g><g id="freepik--Character--inject-141"><path d="M168.31,176.51c24.22.73,48,53.86,33,73.19s-34.21,12.47-41.7,25.44c-3.25,5.62-5.34.95-11.8-4.88s-32.66-39-29.86-57.58S145.72,175.82,168.31,176.51Z" style="fill:#263238"></path><path d="M159.91,270.21c12.49-5.41,26.8-6.77,37.87-15.26,5.49-4.2,9.35-9.65,9.79-16.71.41-6.38-1.1-13-3.11-19A68.24,68.24,0,0,0,193,198.15c-.1-.13.09-.3.2-.17,8.67,10.44,14.95,24.18,15.25,37.93a22,22,0,0,1-6.37,16.39c-4.68,4.8-10.8,7.94-17,10.26-8.19,3.06-16.75,5-24.95,8C159.86,270.64,159.68,270.31,159.91,270.21Z" style="fill:#263238"></path><path d="M167.33,308.5c32.09,37.39,85.8,83.43,103.93,73,15.27-8.81,27.53-64.82,27.69-82.52.07-8-54.77-26.19-54.87-17.58-.11,9.1-2,34.65-3.24,34.24-4-1.28-15-8.22-54.1-26.92C165,278.27,146.09,283.75,167.33,308.5Z" style="fill: rgb(247, 169, 160);"></path><path d="M251.94,350.45c-3.3-5.21-11.28-20.07-10.87-35.45,0-.17.2-.19.22,0,1.11,12.54,8,30,10.82,35.32C252.18,350.45,252,350.58,251.94,350.45Z" style="fill:#263238"></path><path d="M208.19,357.59l17.75-53.07s-36.63-19.24-57.68-25.06c-11.8-3.27-14.49,5.85-9.4,15.66C176.68,329.48,208.19,357.59,208.19,357.59Z" style="fill:#238882"></path><path d="M208.19,357.59l17.75-53.07s-36.63-19.24-57.68-25.06c-11.8-3.27-14.49,5.85-9.4,15.66C176.68,329.48,208.19,357.59,208.19,357.59Z" style="fill:#238882"></path><path d="M203.63,316.19a.93.93,0,0,0-1.21-.42l-5.1,2.49a.35.35,0,0,0-.11.07,0,0,0,0,0,0,0s-.07.06-.11.09,0,0,0,0l-.07.09s0,0,0,.05l0,.09,0,.06s0,.06,0,.09a.94.94,0,0,0,0,.09s0,0,0,.08,0,.06,0,.09a.12.12,0,0,0,0,.07.26.26,0,0,0,0,.12l0,0s0,.08,0,.1l2.42,5.14a1,1,0,0,0,.53.46.92.92,0,0,0,.67,0,.89.89,0,0,0,.43-1.2l-2.05-4.32,4.29-2.08A.91.91,0,0,0,203.63,316.19Zm7.72,2.53a.78.78,0,0,0-1.11,0l-6,6.65a.77.77,0,0,0,.06,1.11.73.73,0,0,0,.25.15.81.81,0,0,0,.84-.21l6-6.67A.76.76,0,0,0,211.35,318.72Zm5.44,6.65a1,1,0,0,0,0-.15,0,0,0,0,0,0,0,.45.45,0,0,0-.06-.12l-2.42-5.14a.93.93,0,0,0-1.21-.42.89.89,0,0,0-.42,1.2l2,4.32-4.29,2.08a.9.9,0,0,0-.43,1.21.92.92,0,0,0,.52.45.87.87,0,0,0,.69,0l5.1-2.5a.52.52,0,0,0,.13-.06h0l.11-.1s0,0,0,0l.08-.1,0,0,0-.1,0-.06a.22.22,0,0,0,0-.08.94.94,0,0,0,0-.09s0,0,0-.05,0-.08,0-.13Zm-60.36-39.52a.62.62,0,0,0,.24.08.93.93,0,0,0,.67-.16.91.91,0,0,0,.37-.58l.73-4.49A7.36,7.36,0,0,0,156.43,285.85Zm25.66,17.75-4.7-.81.77-4.72a.91.91,0,0,0-.74-1,.92.92,0,0,0-1,.74l-.91,5.61a.31.31,0,0,0,0,.13,0,0,0,0,0,0,0,.86.86,0,0,0,0,.15s0,0,0,0,0,.06,0,.11,0,0,0,.06l.06.08,0,.07s0,0,.06.06l0,.08s0,0,.07,0,0,0,.07,0a.07.07,0,0,0,.07,0,.36.36,0,0,0,.1.07h.05a.11.11,0,0,0,.11,0l5.59,1a1,1,0,0,0,.68-.17.86.86,0,0,0,.36-.57A.89.89,0,0,0,182.09,303.6Zm4.73-2.06-2-8.77a.77.77,0,0,0-.91-.59.79.79,0,0,0-.6.94l2,8.76a.76.76,0,0,0,.94.58.62.62,0,0,0,.26-.12A.77.77,0,0,0,186.82,301.54Zm6.13-9.35s0,0,0-.05,0-.06,0-.12,0,0,0,0l-.07-.09a.64.64,0,0,1,0-.07l-.06,0-.06-.08s0,0,0,0a.52.52,0,0,1-.11-.08l0,0-.13-.06s0,0,0,0a.58.58,0,0,0-.14,0l-5.59-1a.92.92,0,0,0-1,.74.89.89,0,0,0,.74,1l4.71.81-.78,4.72a.91.91,0,0,0,.74,1,.93.93,0,0,0,.67-.16,1,1,0,0,0,.37-.58l.91-5.61a.78.78,0,0,0,0-.14,0,0,0,0,0,0,0A.82.82,0,0,1,193,292.19Z" style="fill:#030402;opacity:0.1"></path><path d="M221.91,316.55l-13.73,41s-31.5-28.11-49.32-62.47c-1.9-3.67-2.72-7.23-2.38-10.1Z" style="opacity:0.1"></path><path d="M217,303.57c-3.41,7.94-12,29.74-15.78,44.64,0,.09.3.22.34.13,5-11.92,13.22-36.38,15.93-44.58C217.51,303.61,217,303.42,217,303.57Z" style="fill:#263238"></path><path d="M282.06,315.44c-6,3-37.91-22.23-38.11-29.08-.14-4.77.76-25.16-3.8-37.86-3.8-10.68-10.68-26.1-5-28.36,8.25-3.32,19.29,15.13,25,26.11,3.68-5.63,7.38-10.12,10.49-11.95,10.35-6.07,43.33,36.65,39,48.05C305.4,293.34,288,312.44,282.06,315.44Z" style="fill: rgb(247, 169, 160);"></path><rect x="268.24" y="218.35" width="9.52" height="48.41" transform="translate(-76.51 136.69) rotate(-24.77)" style="fill:#c7c7c7"></rect><polygon points="303.7 291.9 290.62 297.93 290.62 297.93 272.64 258.96 285.72 252.93 285.72 252.93 303.7 291.9" style="fill:#263238"></polygon><path d="M256.56,246.84c1.1,6.14,7.7,1.32,7.7,1.32s-7.82,9.22-4.24,15.1c3.48,5.66,11.24-.44,11.8-.87-.41.49-7.37,9.16-3.16,14.69,4.38,5.76,11.12-1.7,11.56-2.19-.24.59-3.3,8.38.86,11.86,7.15,6,15.51-13.73,22.62-16.27,0,0,5.67,11.56,5.9,11.86,0,0,8.34-18.6,4.39-28a6.51,6.51,0,0,0-7.11-4s3.35-5.7.17-10.16c-1.64-2.29-6.76-1.71-6.76-1.71s2.5-4.67-.58-8.47c-2.45-3-7.2-2-7.2-2s.31-5.59-3.2-7.89C282.25,215.52,254.19,233.7,256.56,246.84Z" style="fill: rgb(247, 169, 160);"></path><path d="M291.73,228.1c.1-.06,0-.2-.06-.17-10.69,3.73-21.29,11.11-27.8,20.45-.21.31.2.79.5.49C272.91,240.52,281.17,233.8,291.73,228.1Z" style="fill:#263238"></path><path d="M300.4,238.35c.11-.07,0-.26-.12-.21-11,3.9-22.7,12.53-28.93,24.19-.22.4,0,1,.27.53C276.35,255.42,290.86,243.43,300.4,238.35Z" style="fill:#263238"></path><path d="M280.06,275.86c6.41-10.95,15.68-18.74,26.35-25.37.14-.08,0-.27-.13-.23-6.1,1.82-12.47,6.76-17.09,11a33.45,33.45,0,0,0-9.51,14.35C279.61,275.85,279.93,276.09,280.06,275.86Z" style="fill:#263238"></path><path d="M264.05,248.16c-.26.37.56.34.32.71-1,1.59-6.39,11.64-3.54,14.53,2.3,2.31,7,.83,8.58-.45l4-3.21-2.61,4.4a21,21,0,0,0-2.54,6.28c-.45,2.17-.33,4.46.89,6.05a4.26,4.26,0,0,0,5.11,1.66,12.85,12.85,0,0,0,5.19-3.86l4-4.59-2.23,5.6a19.72,19.72,0,0,0-1.24,4.86,8,8,0,0,0,.6,4.63,3.85,3.85,0,0,0,3.46,2.12,8.44,8.44,0,0,0,4.31-2,65.86,65.86,0,0,0,7.44-7.41c1.2-1.3,2.4-2.61,3.67-3.87a12.86,12.86,0,0,1,4.31-3.11,13.59,13.59,0,0,0-3.95,3.45c-1.16,1.33-2.25,2.72-3.35,4.11a55.71,55.71,0,0,1-7.2,8,10,10,0,0,1-5.1,2.58,5.45,5.45,0,0,1-5.22-2.93,10,10,0,0,1-.91-5.72,21.64,21.64,0,0,1,1.31-5.43l1.73,1a14.82,14.82,0,0,1-6.09,4.63,6.2,6.2,0,0,1-4.19.07,7,7,0,0,1-3.27-2.54,9.45,9.45,0,0,1-1.12-7.66,22.75,22.75,0,0,1,2.89-6.87l1.36,1.19c-2.07,1.56-7.14,3.79-11.15.65C254.83,260.12,262.51,249.93,264.05,248.16Z" style="fill:#263238"></path><path d="M264.26,248.16a12.59,12.59,0,0,1-3.68,1.07,2.87,2.87,0,0,1-2.72-1.08,5.87,5.87,0,0,1-.79-3.25c0-1.26.07-2.58.19-3.94a9.93,9.93,0,0,0-1.54,3.82,5.81,5.81,0,0,0,.73,4.4,4.09,4.09,0,0,0,2,1.42,4.25,4.25,0,0,0,2.35,0A6.74,6.74,0,0,0,264.26,248.16Z" style="fill:#263238"></path><path d="M54.58,430.3,205.19,430l-8.33-51.79s11.91-14.45,9.66-30.13c-2.47-17.18-33.45-60.72-36.05-63.18-10.49-9.84-21.59-11.6-32.25-8.05h0C89,307.75,54.58,430.3,54.58,430.3Z" style="fill:#238882"></path><path d="M173,374.2a124.35,124.35,0,0,0-18.29,3c-3,.76-5.9,1.66-8.82,2.62-1.46.48-2.92.91-4.39,1.33a19.89,19.89,0,0,1-4.71.89.11.11,0,0,0,0,.22,34.38,34.38,0,0,0,4.54-.08,33.56,33.56,0,0,0,4.32-.82c3-.75,6-1.63,9-2.41,6.1-1.56,12.19-3.13,18.38-4.25C173.39,374.66,173.32,374.17,173,374.2Z" style="fill:#263238"></path><path d="M188.25,379.66a134.43,134.43,0,0,0-15.28-.74c-2.55,0-5.08.21-7.63.46-1.21.12-2.42.26-3.63.41s-2.64.52-4,.67c-.14,0-.14.23,0,.22,1.26-.11,2.55,0,3.81,0l3.81-.1c2.55-.06,5.09-.1,7.64-.18,5.09-.18,10.16-.3,15.26-.29C188.53,380.08,188.51,379.68,188.25,379.66Z" style="fill:#263238"></path><path d="M145.24,361.73a.93.93,0,0,0-1.21-.43l-5.1,2.5a.18.18,0,0,0-.11.07s0,0,0,0-.07.07-.11.1l0,0-.07.1,0,0,0,.1,0,.06s0,.06,0,.08l0,.1s0,0,0,.07,0,.06,0,.09a.1.1,0,0,0,0,.07.25.25,0,0,0,0,.12l0,0c0,.05,0,.08,0,.11l2.42,5.14a.94.94,0,0,0,.53.45.87.87,0,0,0,.67,0,.9.9,0,0,0,.43-1.21l-2-4.31,4.29-2.09A.9.9,0,0,0,145.24,361.73Zm7.72,2.53a.78.78,0,0,0-1.11,0l-6,6.66a.76.76,0,0,0,.06,1.1.73.73,0,0,0,.25.15.79.79,0,0,0,.84-.2l6-6.67A.76.76,0,0,0,153,364.26Zm5.44,6.64a.93.93,0,0,0,0-.14s0,0,0,0a.38.38,0,0,0-.06-.13l-2.42-5.14a.93.93,0,0,0-1.21-.42.9.9,0,0,0-.42,1.21l2.05,4.31-4.3,2.09a.9.9,0,0,0-.42,1.2.94.94,0,0,0,.52.46,1,1,0,0,0,.69,0l5.1-2.5a.52.52,0,0,0,.13-.06,0,0,0,0,0,0,0,.57.57,0,0,0,.11-.1s0,0,0,0l.08-.11,0,0a.49.49,0,0,0,0-.11.21.21,0,0,0,0-.06s0-.06,0-.07l0-.1s0,0,0,0,0-.09,0-.14S158.4,370.92,158.4,370.9Zm-78.33-3.81a.79.79,0,0,0-1.11,0L75.48,371c-.57,1.36-1.12,2.7-1.66,4a.7.7,0,0,0,.27-.19l6-6.67A.76.76,0,0,0,80.07,367.09Zm5.42,6.5s0,0,0,0a.75.75,0,0,0-.06-.13L83,368.3a.93.93,0,0,0-1.21-.43.9.9,0,0,0-.42,1.21l2,4.31-4.3,2.09a.9.9,0,0,0-.42,1.21.92.92,0,0,0,.52.45.94.94,0,0,0,.68,0l5.11-2.5a.34.34,0,0,0,.12-.06s0,0,0,0l.11-.09a.07.07,0,0,1,0,0l.08-.11s0,0,0,0a.49.49,0,0,0,0-.11l0-.06s0-.06,0-.07l0-.09a.08.08,0,0,0,0-.05.56.56,0,0,1,0-.13s0,0,0,0S85.49,373.65,85.49,373.59ZM191,418.3a.93.93,0,0,0-1.2-.42l-5.1,2.5a.34.34,0,0,0-.12.06,0,0,0,0,0,0,0s-.07.07-.11.1l0,0-.06.1s0,0-.05,0l0,.1,0,.06s0,.06,0,.08l0,.1s0,0,0,.07,0,.06,0,.09a.07.07,0,0,0,0,.07.48.48,0,0,0,0,.12s0,0,0,0a.14.14,0,0,0,0,.11l2.43,5.13a.89.89,0,0,0,.53.46.87.87,0,0,0,.67,0,.9.9,0,0,0,.42-1.21l-2-4.31,4.3-2.09A.9.9,0,0,0,191,418.3Zm7.73,2.54a.78.78,0,0,0-1.11,0l-6,6.66a.76.76,0,0,0,.07,1.1.64.64,0,0,0,.25.15.77.77,0,0,0,.83-.2l6-6.67A.76.76,0,0,0,198.72,420.84Zm5.41,6.5s0,0,0,0a.75.75,0,0,0-.06-.13L201.64,422a.92.92,0,0,0-1.2-.42.9.9,0,0,0-.42,1.21l2,4.31-4.3,2.09a.86.86,0,0,0-.5.74h3.1l3.28-1.6a.53.53,0,0,0,.13-.06h0l.11-.1,0,0a.33.33,0,0,1,.08-.11s0,0,0,0a.49.49,0,0,0,0-.11l0-.06s0-.06,0-.07l0-.1s0,0,0,0a.65.65,0,0,1,0-.14s0,0,0,0A1.21,1.21,0,0,0,204.13,427.34Zm-85.8-123.45a.93.93,0,0,0-1.21-.43L112,306a.18.18,0,0,0-.11.07s0,0,0,0-.07.07-.11.1,0,0,0,0l-.07.1s0,0,0,0l0,.1s0,.05,0,.06,0,.06,0,.08l0,.1s0,0,0,.08,0,0,0,.08a.1.1,0,0,0,0,.07.25.25,0,0,0,0,.12l0,.05a.1.1,0,0,0,0,.1l2.42,5.14a.94.94,0,0,0,.53.45.87.87,0,0,0,.67,0,.9.9,0,0,0,.43-1.21l-2-4.31,4.29-2.09A.9.9,0,0,0,118.33,303.89Zm7.72,2.53a.78.78,0,0,0-1.11,0l-6,6.66a.76.76,0,0,0,.06,1.1.73.73,0,0,0,.25.15.79.79,0,0,0,.84-.2l6-6.67A.76.76,0,0,0,126.05,306.42Zm5.44,6.64a.93.93,0,0,0,0-.14s0,0,0,0a.38.38,0,0,0-.06-.13L129,307.63a.93.93,0,0,0-1.21-.43.9.9,0,0,0-.42,1.21l2.05,4.31-4.29,2.09a.89.89,0,0,0-.43,1.2.9.9,0,0,0,.52.46,1,1,0,0,0,.69,0l5.1-2.5a.52.52,0,0,0,.13-.06h0a.57.57,0,0,0,.11-.1l0,0,.08-.11,0,0,0-.11,0-.06s0-.06,0-.07a.94.94,0,0,1,0-.09.08.08,0,0,0,0,0c0-.06,0-.09,0-.13S131.49,313.08,131.49,313.06Zm23.58,21.37-3.61-3.13,3.09-3.64a.89.89,0,0,0-.1-1.27.92.92,0,0,0-1.27.1l-3.66,4.34a.18.18,0,0,0-.08.1,0,0,0,0,0,0,0s0,.08-.06.13,0,0,0,0,0,.07,0,.11,0,0,0,.06a.34.34,0,0,1,0,.1s0,.06,0,.07a.37.37,0,0,1,0,.09.22.22,0,0,1,0,.09s0,0,0,.07a.47.47,0,0,0,0,.09.08.08,0,0,0,.05.05.54.54,0,0,0,.05.11l0,0c0,.05,0,.07.08.08l4.29,3.73a1,1,0,0,0,.67.2.87.87,0,0,0,.6-.3A.89.89,0,0,0,155.07,334.43Zm7.47-8.84a.79.79,0,0,0-1,.49l-2.83,8.52a.77.77,0,0,0,.51,1,.69.69,0,0,0,.28,0,.8.8,0,0,0,.69-.52l2.83-8.53A.77.77,0,0,0,162.54,325.59Zm7.77,4.25a.64.64,0,0,1,0-.07v-.09s0,0,0-.05a.38.38,0,0,1-.05-.12s0,0,0,0,0-.07-.08-.12,0,0,0,0l-.1-.09-4.29-3.72a.91.91,0,0,0-1.27.1.89.89,0,0,0,.09,1.27l3.62,3.12-3.09,3.64a.89.89,0,0,0,.75,1.48.94.94,0,0,0,.62-.3l3.66-4.34a.44.44,0,0,0,.09-.11,0,0,0,0,0,0,0l.06-.13s0,0,0,0,0-.07,0-.13,0,0,0,0a.41.41,0,0,0,0-.11S170.32,329.86,170.31,329.84Zm-3.54,71.06-3.61-3.12,3.09-3.64a.9.9,0,0,0-.1-1.27.92.92,0,0,0-1.28.1l-3.66,4.34a.35.35,0,0,0-.08.1s0,0,0,0a.52.52,0,0,0-.06.13s0,0,0,0,0,.08,0,.12,0,0,0,.06,0,.07,0,.1,0,.05,0,.07,0,.05,0,.08a.38.38,0,0,0,0,.1s0,0,0,.07,0,.06,0,.08a.07.07,0,0,0,0,.06.54.54,0,0,0,.05.11l0,0s0,.07.08.08l4.29,3.73a1,1,0,0,0,.67.2.94.94,0,0,0,.6-.3A.91.91,0,0,0,166.77,400.9Zm7.47-8.83a.78.78,0,0,0-1,.49l-2.83,8.52a.76.76,0,0,0,.5,1,.73.73,0,0,0,.29,0,.81.81,0,0,0,.69-.53l2.82-8.53A.76.76,0,0,0,174.24,392.07Zm7.77,4.25,0-.07s0-.07,0-.1,0,0,0,0a1,1,0,0,1-.05-.12s0,0,0,0l-.08-.12s0,0,0,0a.33.33,0,0,0-.11-.09L177.4,392a.93.93,0,0,0-1.27.1.91.91,0,0,0,.1,1.28l3.61,3.12-3.09,3.64a.9.9,0,0,0,.76,1.48.92.92,0,0,0,.61-.3l3.67-4.35a.81.81,0,0,0,.09-.1s0,0,0,0l.06-.13s0,0,0,0a.39.39,0,0,1,0-.13s0,0,0,0,0-.08,0-.12ZM96.54,328a.64.64,0,0,0,0-.07s0-.07,0-.1,0,0,0,0a.49.49,0,0,1-.06-.13s0,0,0,0l-.08-.12s0,0,0,0,0-.06-.09-.07c-.69,1.24-1.38,2.5-2.06,3.76l2.14-2.54a.81.81,0,0,0,.09-.1s0,0,0,0a.53.53,0,0,1,.06-.13s0,0,0,0a.53.53,0,0,1,0-.13s0,0,0,0,0-.07,0-.11Zm7.75,67.4-3.61-3.12,3.09-3.65a.9.9,0,0,0-.1-1.27.93.93,0,0,0-1.28.1l-3.66,4.34a.58.58,0,0,0-.08.1,0,0,0,0,0,0,0,.39.39,0,0,0-.06.13s0,0,0,0,0,.07,0,.11,0,0,0,.06a.34.34,0,0,0,0,.1v.07c0,.05,0,.06,0,.09a.46.46,0,0,0,0,.1s0,0,0,.06,0,.06,0,.09a.06.06,0,0,0,0,0,.54.54,0,0,0,0,.11l0,0s0,.06.08.07l4.29,3.73a1,1,0,0,0,.67.2.89.89,0,0,0,.5-1.57Zm7.47-8.84a.78.78,0,0,0-1,.49l-2.83,8.52a.77.77,0,0,0,.5,1,.72.72,0,0,0,.29,0,.76.76,0,0,0,.68-.52l2.83-8.53A.77.77,0,0,0,111.76,386.57Zm7.77,4.25a.64.64,0,0,1,0-.07s0-.07,0-.09,0,0,0-.05a1,1,0,0,1,0-.12s0,0,0,0,0-.06-.08-.12,0,0,0,0a1.35,1.35,0,0,0-.11-.09l-4.29-3.72a.92.92,0,0,0-1.27.1.89.89,0,0,0,.1,1.27l3.61,3.12-3.09,3.64a.91.91,0,0,0,.1,1.28.94.94,0,0,0,.66.2.92.92,0,0,0,.61-.3l3.67-4.34s.06-.08.09-.11h0a1.14,1.14,0,0,0,.06-.14s0,0,0,0,0-.07,0-.13,0,0,0,0a.41.41,0,0,1,0-.11S119.53,390.84,119.53,390.82Zm-8.9-36.67-4.7-.81.77-4.72a.91.91,0,0,0-.74-1,.92.92,0,0,0-1,.74l-.91,5.61a.31.31,0,0,0,0,.13,0,0,0,0,0,0,0s0,.09,0,.15,0,0,0,0,0,.06,0,.11,0,0,0,.06l.06.08a.36.36,0,0,0,0,.07s0,0,.06.06l0,.08s0,0,.07,0,0,0,.07.05a.07.07,0,0,0,.07,0,.26.26,0,0,0,.1.07h0a.11.11,0,0,0,.11,0l5.59,1a1,1,0,0,0,.68-.17.86.86,0,0,0,.36-.57A.89.89,0,0,0,110.63,354.15Zm4.73-2.06-2-8.77a.77.77,0,0,0-.91-.59.79.79,0,0,0-.6.94l2,8.76a.76.76,0,0,0,.94.58.62.62,0,0,0,.26-.12A.77.77,0,0,0,115.36,352.09Zm6.13-9.35s0,0,0-.05,0-.06,0-.12,0,0,0,0l-.07-.09,0-.06s0,0-.06-.05l-.06-.08s0,0,0,0a.52.52,0,0,1-.11-.08l0,0-.13-.06s0,0,0,0a.58.58,0,0,0-.14,0l-5.59-1a.92.92,0,0,0-1,.74.89.89,0,0,0,.74,1l4.7.81-.77,4.72a.91.91,0,0,0,.74,1,.92.92,0,0,0,1-.74l.91-5.61a.78.78,0,0,0,0-.14,0,0,0,0,0,0,0A.82.82,0,0,1,121.49,342.74Zm69.62,22.14-4.71-.82.78-4.71a.9.9,0,0,0-.74-1,.92.92,0,0,0-1,.74l-.91,5.61a.2.2,0,0,0,0,.13s0,0,0,0,0,.09,0,.14,0,0,0,0l0,.11s0,0,0,.07a.56.56,0,0,1,0,.08s0,.05,0,.06l.06.06.06.09s0,0,.07,0,0,0,.07.05a.07.07,0,0,0,.07,0,.26.26,0,0,0,.1.07h.05a.1.1,0,0,0,.11,0l5.59,1a1,1,0,0,0,.68-.17.89.89,0,0,0,.36-.57A.9.9,0,0,0,191.11,364.88Zm4.73-2.06-2-8.77a.76.76,0,0,0-.91-.59.78.78,0,0,0-.6.93l2,8.76a.76.76,0,0,0,.94.59.77.77,0,0,0,.26-.12A.78.78,0,0,0,195.84,362.82Zm6.13-9.36s0,0,0,0,0-.07,0-.13,0,0,0,0l-.07-.09s0-.06,0-.07l-.05-.05-.06-.08,0,0a.35.35,0,0,1-.11-.09h0s-.08,0-.13-.06a0,0,0,0,0,0,0l-.14,0-5.59-1a.91.91,0,0,0-1,.74.9.9,0,0,0,.74,1l4.7.81-.77,4.71a.9.9,0,0,0,.74,1.05.94.94,0,0,0,1-.74l.9-5.61a.89.89,0,0,0,0-.14,0,0,0,0,0,0,0A.86.86,0,0,1,202,353.46Zm-54.2-62.77-4.7-.81.77-4.72a.9.9,0,0,0-.74-1,.92.92,0,0,0-1,.74l-.9,5.61a.34.34,0,0,0,0,.13,0,0,0,0,0,0,0,.86.86,0,0,0,0,.15s0,0,0,0,0,.06,0,.11,0,0,0,.06l.06.08,0,.07s0,0,.06.06l0,.08s0,0,.07,0,0,0,.07.05a.07.07,0,0,0,.07,0,.36.36,0,0,0,.1.07h.05a.12.12,0,0,0,.11,0l5.59,1a1,1,0,0,0,.68-.17.86.86,0,0,0,.36-.57A.89.89,0,0,0,147.77,290.69Zm4.73-2.06-2-8.77a.77.77,0,0,0-.91-.59.79.79,0,0,0-.6.94l2,8.76a.77.77,0,0,0,.94.58.62.62,0,0,0,.26-.12A.77.77,0,0,0,152.5,288.63Zm6.13-9.35a.05.05,0,0,1,0,0,.55.55,0,0,1,0-.12s0,0,0,0l-.07-.09a.64.64,0,0,1,0-.07l-.06,0a.24.24,0,0,0-.06-.08s0,0,0,0a.52.52,0,0,1-.11-.08l0,0-.13-.06s0,0,0,0a.58.58,0,0,0-.14,0l-5.59-1a.92.92,0,0,0-1,.74.89.89,0,0,0,.74,1l4.71.81-.78,4.72a.91.91,0,0,0,.74,1,.93.93,0,0,0,.67-.16.91.91,0,0,0,.37-.58l.91-5.61a.78.78,0,0,0,0-.14,0,0,0,0,0,0,0A.82.82,0,0,1,158.63,279.28ZM128.46,423.47l-4.71-.82.78-4.71a.9.9,0,0,0-.74-1,.92.92,0,0,0-1,.74l-.91,5.61a.2.2,0,0,0,0,.13s0,0,0,0,0,.09,0,.14,0,0,0,0l0,.11s0,0,0,.06a.47.47,0,0,1,.06.09l0,.06s0,0,.06.06l.06.08s0,0,.07,0l.07.06a.1.1,0,0,0,.07,0,.43.43,0,0,0,.1.07h0a.1.1,0,0,0,.11,0l5.59,1a1,1,0,0,0,.68-.17.93.93,0,0,0,.36-.57A.9.9,0,0,0,128.46,423.47Zm4.73-2.06-2-8.77a.77.77,0,0,0-.91-.59.79.79,0,0,0-.61.93l2,8.76a.77.77,0,0,0,1.2.47A.78.78,0,0,0,133.19,421.41Zm6.13-9.36s0,0,0,0,0-.07,0-.13,0,0,0,0l-.07-.09s0-.06,0-.07l0-.05-.06-.08s0,0,0,0a.35.35,0,0,1-.11-.08h0s-.08,0-.13-.06a0,0,0,0,0,0,0l-.14,0-5.59-1a.92.92,0,0,0-1,.74.89.89,0,0,0,.74,1l4.7.82-.77,4.71a.9.9,0,0,0,1.41.88.92.92,0,0,0,.37-.58l.9-5.6a.89.89,0,0,0,0-.14,0,0,0,0,0,0,0A.92.92,0,0,1,139.32,412.05ZM65.65,422.13l-4.71-.81.78-4.72a.91.91,0,0,0-.75-1,.94.94,0,0,0-1,.74l-.9,5.61a.2.2,0,0,0,0,.13s0,0,0,0,0,.09,0,.15,0,0,0,0a.36.36,0,0,1,0,.11s0,0,0,.06l.06.08a.49.49,0,0,1,0,.07l.06.06.06.08s0,0,.06,0,0,0,.08.05,0,0,.06,0l.1.07h.06a.1.1,0,0,0,.1,0l5.6,1a1,1,0,0,0,.68-.17.89.89,0,0,0-.38-1.61Zm4.73-2.06-2-8.77a.78.78,0,0,0-.91-.59.79.79,0,0,0-.61.94l2,8.76a.76.76,0,0,0,.94.58.62.62,0,0,0,.26-.12A.78.78,0,0,0,70.38,420.07Zm6.12-9.35s0,0,0-.05,0-.06,0-.12,0,0,0,0l-.06-.09,0-.06s0,0,0-.05l-.06-.08s0,0,0,0l-.1-.08s0,0,0,0l-.13-.06s0,0,0,0a.58.58,0,0,0-.14,0l-5.6-1a.93.93,0,0,0-1,.74.91.91,0,0,0,.74,1l4.71.81-.77,4.72a.9.9,0,0,0,1.78.3l.9-5.61a.89.89,0,0,0,0-.14,0,0,0,0,0,0,0C76.51,410.8,76.51,410.75,76.5,410.72ZM182.09,303.6l-4.7-.81.77-4.72a.91.91,0,0,0-.74-1,.92.92,0,0,0-1,.74l-.91,5.61a.31.31,0,0,0,0,.13,0,0,0,0,0,0,0,.86.86,0,0,0,0,.15s0,0,0,0,0,.06,0,.11,0,0,0,.06l.06.08,0,.07s0,0,.06.06l0,.08s0,0,.07,0,0,0,.07,0a.07.07,0,0,0,.07,0,.36.36,0,0,0,.1.07h.05a.11.11,0,0,0,.11,0l5.59,1a1,1,0,0,0,.68-.17.86.86,0,0,0,.36-.57A.89.89,0,0,0,182.09,303.6Z" style="fill:#030402;opacity:0.1"></path><path d="M120.14,290.36c-38.36,40.21-86.06,124.23-76.62,141,10.5,18.61,65.39-38.29,63.65-41-1.48-2.33,18.07-53.25,32-90.25S129.62,280.42,120.14,290.36Z" style="fill: rgb(247, 169, 160);"></path><path d="M73.14,338.57l55.08,9.91s13.75-39,16.47-60.69c1.53-12.14-5.6-12.64-14.58-6.19C98.68,304.19,73.14,338.57,73.14,338.57Z" style="fill:#238882"></path><path d="M118.33,303.89a.93.93,0,0,0-1.21-.43L112,306a.18.18,0,0,0-.11.07s0,0,0,0-.07.07-.11.1,0,0,0,0l-.07.1s0,0,0,0l0,.1s0,.05,0,.06,0,.06,0,.08l0,.1s0,0,0,.08,0,0,0,.08a.1.1,0,0,0,0,.07.25.25,0,0,0,0,.12l0,.05a.1.1,0,0,0,0,.1l2.42,5.14a.94.94,0,0,0,.53.45.87.87,0,0,0,.67,0,.9.9,0,0,0,.43-1.21l-2-4.31,4.29-2.09A.9.9,0,0,0,118.33,303.89Zm7.72,2.53a.78.78,0,0,0-1.11,0l-6,6.66a.76.76,0,0,0,.06,1.1.73.73,0,0,0,.25.15.79.79,0,0,0,.84-.2l6-6.67A.76.76,0,0,0,126.05,306.42Zm5.44,6.64a.93.93,0,0,0,0-.14s0,0,0,0a.38.38,0,0,0-.06-.13L129,307.63a.93.93,0,0,0-1.21-.43.9.9,0,0,0-.42,1.21l2.05,4.31-4.29,2.09a.89.89,0,0,0-.43,1.2.9.9,0,0,0,.52.46,1,1,0,0,0,.69,0l5.1-2.5a.52.52,0,0,0,.13-.06h0a.57.57,0,0,0,.11-.1l0,0,.08-.11,0,0,0-.11,0-.06s0-.06,0-.07a.94.94,0,0,1,0-.09.08.08,0,0,0,0,0c0-.06,0-.09,0-.13S131.49,313.08,131.49,313.06ZM81.3,332.59l-2-1.76c-.4.48-.77.95-1.13,1.39l2,1.74a.92.92,0,0,0,1.27-.09A.91.91,0,0,0,81.3,332.59Zm7.47-8.83a.79.79,0,0,0-1,.49l-2.83,8.52a.79.79,0,0,0,.79,1,.81.81,0,0,0,.69-.53l2.82-8.53A.76.76,0,0,0,88.77,323.76ZM96.54,328a.64.64,0,0,0,0-.07s0-.07,0-.1,0,0,0,0a.49.49,0,0,1-.06-.13s0,0,0,0l-.08-.12s0,0,0,0a.33.33,0,0,0-.11-.09l-4.29-3.73a.93.93,0,0,0-1.27.1.91.91,0,0,0,.1,1.28l3.61,3.12-3.09,3.64A.9.9,0,0,0,92.66,333l3.66-4.34a.81.81,0,0,0,.09-.1s0,0,0,0a.53.53,0,0,1,.06-.13s0,0,0,0a.53.53,0,0,1,0-.13s0,0,0,0,0-.07,0-.11Zm16.85,15.31a.77.77,0,0,0-.91-.59.79.79,0,0,0-.6.94l.44,1.95,1.65.3Zm8.1-.58s0,0,0-.05,0-.06,0-.12,0,0,0,0l-.07-.09,0-.06s0,0-.06-.05l-.06-.08s0,0,0,0a.52.52,0,0,1-.11-.08l0,0-.13-.06s0,0,0,0a.58.58,0,0,0-.14,0l-5.59-1a.92.92,0,0,0-1,.74.89.89,0,0,0,.74,1l4.7.81-.52,3.2,1.77.32.67-4.11a.78.78,0,0,0,0-.14,0,0,0,0,0,0,0A.82.82,0,0,1,121.49,342.74Zm21.58-52.86.77-4.72a.9.9,0,0,0-.74-1,.92.92,0,0,0-1,.74l-.9,5.61a.34.34,0,0,0,0,.13,0,0,0,0,0,0,0,.86.86,0,0,0,0,.15s0,0,0,0,0,.06,0,.11,0,0,0,.06l.06.08,0,.07s0,0,.06.06l0,.08s0,0,.07,0,0,0,.07.05a.07.07,0,0,0,.07,0,.36.36,0,0,0,.1.07h.05a.12.12,0,0,0,.11,0l2.21.39c.1-.6.19-1.2.28-1.78Z" style="fill:#030402;opacity:0.1"></path><path d="M127.85,339.47c-8.34-2.23-31.16-7.62-46.44-9.18-.1,0-.17.34-.08.36,12.52,3.22,37.9,7.83,46.41,9.33C127.9,340,128,339.51,127.85,339.47Z" style="fill:#263238"></path><path d="M121.5,347.28c2.27.22,4.54.48,6.79.79l-.47.28c1.64-6,3.46-11.94,5.41-17.84s4.05-11.75,6.42-17.52c-1.44,6.06-3.18,12-5,18s-3.84,11.83-6,17.66l-.14.35-.34-.07Q124.81,348.15,121.5,347.28Z" style="fill:#263238"></path><path d="M136,324.86a17,17,0,0,1,1.88-3.47,24.77,24.77,0,0,1,2.49-3.09,7.29,7.29,0,0,1-.65,1.89,13.49,13.49,0,0,1-1,1.72A12.86,12.86,0,0,1,136,324.86Z" style="fill:#263238"></path><path d="M145.25,285.48C146,288,159.2,304.14,171,303c3.83-.38,2.64-21.4,2.64-21.4l.27-1.57,3.72-22-26.41-15-3.8-2s-.62,6.09-1.32,13.67c0,.36-.07.71-.1,1.08s-.1.84-.13,1.24c-.12,1.13-.24,2.29-.33,3.44-.07.88-.15,1.73-.19,2.66s-.12,1.83-.18,2.75C144.67,275,145,284.39,145.25,285.48Z" style="fill: rgb(247, 169, 160);"></path><path d="M146.07,254.63A44.81,44.81,0,0,0,173.88,280l3.72-22-26.41-15-3.8-2S146.77,247.05,146.07,254.63Z" style="fill:#263238"></path><path d="M139.29,241.69c2.78,21.68-17.28,49.78-3.59,88.33,6.15,17.32,39.13,32.33,40.73,67.34.41,9.07,41-47.46-8.74-109.83C152.07,268,139.29,241.69,139.29,241.69Z" style="fill:#263238"></path><path d="M168,291.89C186,312,201.9,340.2,194.57,368c-2.15,8.11-6.51,15.15-11,22.17-.08.12-.26,0-.18-.14,3.87-6.27,7.71-12.68,9.82-19.78a56.92,56.92,0,0,0,1.93-20.82c-1.14-13.88-6.66-26.9-14-38.59-4.1-6.52-8.87-12.5-13.53-18.61C167.41,291.94,167.81,291.64,168,291.89Z" style="fill:#263238"></path><path d="M132.59,277.76c2.7-8.87,6-17.69,6.81-27,0-.1.17-.08.16,0-1,15.12-8.08,29-9.82,44-1.62,14,.19,28.5,6.52,41.19a62.71,62.71,0,0,0,13.56,17.95c.18.17,0,.47-.24.31-9.86-8.05-16.43-19.85-19.46-32.1C126.46,307.34,128.18,292.18,132.59,277.76Z" style="fill:#263238"></path><path d="M146.37,256a66.07,66.07,0,0,0,11,17c4.45,5.06,9.34,9.7,13.84,14.7,9.48,10.5,17.52,22.6,21.34,36.34a60.84,60.84,0,0,1,1.7,24.09,0,0,0,0,1-.07,0c1.78-14.84-3.13-30.05-10.77-42.65a112.46,112.46,0,0,0-12.52-16.7c-4.42-4.95-9.15-9.61-13.49-14.63-4.64-5.37-9.17-11.21-11.52-18A.24.24,0,0,1,146.37,256Z" style="fill:#263238"></path><rect x="134.47" y="254.15" width="16.74" height="9.53" rx="3.27" style="fill:#238882"></rect><path d="M202.81,215.45c11.23,37.52-10,48.48-18.07,50.89-7.34,2.19-32.64,8.72-47.68-27.44s-1.15-53.24,15.38-59.14S191.58,177.93,202.81,215.45Z" style="fill: rgb(247, 169, 160);"></path><path d="M194.41,208.45a25.85,25.85,0,0,1-2.63.64,4.35,4.35,0,0,1-2.8.15,1.39,1.39,0,0,1-.74-1.53A3.49,3.49,0,0,1,191,205.5a5.06,5.06,0,0,1,3.65.24A1.49,1.49,0,0,1,194.41,208.45Z" style="fill:#263238"></path><path d="M171,223.78c.91-.16,1.73-.45,2.62-.69a4.4,4.4,0,0,0,2.53-1.21,1.38,1.38,0,0,0-.09-1.7,3.46,3.46,0,0,0-3.44-.64,5.09,5.09,0,0,0-3.09,2A1.49,1.49,0,0,0,171,223.78Z" style="fill:#263238"></path><path d="M191.09,220.49c0-.11.23.08.25.19.45,2.62,1.41,5.56,4,5.94.07,0,.09.14,0,.15C192.34,227,191.1,223.05,191.09,220.49Z" style="fill:#263238"></path><path d="M192.86,217.28c4.13-1.18,6.2,7.17,2.37,8.27S189.39,218.27,192.86,217.28Z" style="fill:#263238"></path><path d="M194.74,217.4c.77.28,1.62.92,2.42.78s1.38-1.24,1.75-2.25c0-.1.13-.05.16.06.43,1.59.32,3.38-1.14,4.07s-2.7-.49-3.47-2C194.31,217.79,194.43,217.29,194.74,217.4Z" style="fill:#263238"></path><path d="M182,247c.73.51,1.5,1.25,2.47,1.17a6.91,6.91,0,0,0,2.72-1.13.09.09,0,0,1,.13.12,3.58,3.58,0,0,1-3.1,2,2.84,2.84,0,0,1-2.45-2C181.65,247.05,181.84,247,182,247Z" style="fill:#263238"></path><path d="M190.7,235.18s1.41,3.76,1.83,5.59c0,.18-.39.36-1,.53,0,0,0,0-.07,0a8.92,8.92,0,0,1-9.2-1.34c-.17-.15,0-.39.22-.31a13.52,13.52,0,0,0,8.47.48c0-.54-2.64-6.37-2.36-6.45a16,16,0,0,1,4.38,0c-2.72-7.93-6.69-15.35-9.28-23.28-.09-.29.31-.47.45-.23,4.71,7.49,8,16.54,11.06,24.65C195.59,235.85,191.5,235.32,190.7,235.18Z" style="fill:#263238"></path><path d="M169.13,227.8a9,9,0,0,1,2.27-1.2,9.12,9.12,0,0,1,2.57-.54,7.56,7.56,0,0,1,2.73.39,6.34,6.34,0,0,1,2.38,1.57l1.2,1.25-1.73.29a17.91,17.91,0,0,0-3.58,1,7.67,7.67,0,0,0-3.14,2.14,5.62,5.62,0,0,1,2.49-3.34,10.66,10.66,0,0,1,4-1.57l-.53,1.53a6.36,6.36,0,0,0-3.83-1.68A20.16,20.16,0,0,0,169.13,227.8Z" style="fill:#263238"></path><path d="M175.74,233.19a15.92,15.92,0,0,0,3.27-2.36c.21-.24,1-1.26.92-1.46a7.09,7.09,0,0,0-1.14-1.63,5.06,5.06,0,0,1,1.51,1.48,2.57,2.57,0,0,1-.87,2A8,8,0,0,1,175.74,233.19Z" style="fill:#263238"></path><path d="M142.14,241.87c7.77-2.77,2-20.75,2-20.75s12.34-7,14.72-17.8c0,0-1,9-5.06,14-.68.84,25.17-11,20.67-32.43,0,0,10.88,18.9,24.52,18.86.65,0-8.11-17.83-13.53-20.81a41.34,41.34,0,0,0-9.93-4A40.56,40.56,0,0,0,145,181.29c-15.62,8-20.47,29-19.28,36.52C128,232.6,138.46,243.18,142.14,241.87Z" style="fill:#263238"></path><path d="M154.82,217.43c14.38-5.64,22.81-19,18.91-34.28a.35.35,0,0,1,.65-.23c7.17,14.46-5.4,31.16-19.61,34.82C154.43,217.83,154.48,217.57,154.82,217.43Z" style="fill:#263238"></path><path d="M141.89,241c6.52-6.78,5.05-15.16,2.88-23.44-.06-.24.34-.39.43-.14,2.84,7.87,4.72,18.07-2.79,24.15A.39.39,0,0,1,141.89,241Z" style="fill:#263238"></path><path d="M173.55,181.72c0-.09.11-.13.16-.05,4.64,7.76,9.84,21.74,21.28,20.19a.23.23,0,0,1,.09.46C184.23,204.79,175.39,190.76,173.55,181.72Z" style="fill:#263238"></path><path d="M127.07,216.91l-1.78,3.78,12.52,8.82,3.82-8.52Zm9.82,8.74-8.66-5.37.39-.89,9.66,3.28Z" style="fill:#238882"></path><path d="M127.46,210.27l-.22,4.17,14.92,3.45.33-9.32Zm12.39,4.4-10-1.72,0-1,10.18-.6Z" style="fill:#238882"></path><path d="M143.88,240s-10.85-10.24-15.66-6.13,5.07,20.16,11.94,21.21a6.63,6.63,0,0,0,8-5.29Z" style="fill: rgb(247, 169, 160);"></path><path d="M131.17,238.4a.09.09,0,0,0,0,.18c4.84.88,8.06,4.54,10.6,8.5-1.68-1.38-3.67-1.91-5.56.13-.1.11,0,.26.17.21a4.07,4.07,0,0,1,4.68.49,19,19,0,0,1,2.83,3.11c.3.36,1,0,.73-.44l-.06-.09C143.49,244.76,137.41,237.71,131.17,238.4Z" style="fill:#263238"></path><path d="M44.59,432.83c11.43,10.22,35.25,7.09,96,4.83,8.4-.31,22.15-60.21,13.16-60.34-11.33-.16-55.31,1.67-58.51,2.21C68.24,384.08,36.84,425.89,44.59,432.83Z" style="fill: rgb(247, 169, 160);"></path><path d="M134.9,377.79s22.11-11.31,35.57-13.65c18-3.15,34.88,1.56,41.82,4,14.49,5,46.07,27.14,41.28,37.35-4.33,9.24-35.47-15-35.47-15s35.83,19.49,28.57,29.65-41.81-20-41.81-20,36.36,20.85,27.21,30.15c-6.91,7-39.74-18.57-39.74-18.57s31.13,18.13,24.33,25.67c-7.51,8.32-39.3-13.41-39.3-13.41-20.5,16.24-36.91,15.59-48.52,13.73C126,437.17,134.9,377.79,134.9,377.79Z" style="fill: rgb(247, 169, 160);"></path><path d="M206.14,382.9c4.3,2.14,8.65,4.27,12.74,6.79s8.09,5.16,11.92,8c9.41,7.07,14.19,13,13.86,12.63-7.93-7.85-22.42-17.07-26.51-19.58s-8-5.21-12.11-7.72A.09.09,0,0,1,206.14,382.9Z" style="fill:#263238"></path><path d="M196.81,397.49c5.36,3,10.79,5.72,16,8.92s9.87,6.67,14.84,10.21c.39.27.11.39-.28.13-5.11-3.34-10.09-6-15.24-9.3s-10.18-6.76-15.42-9.83C196.65,397.57,196.73,397.45,196.81,397.49Z" style="fill:#263238"></path><path d="M186.54,408.58c8.43,4.11,16.09,9.77,23.46,15.51.37.28,0,.39-.39.12-7.7-5.3-13.7-9.51-23.21-15.34C186.25,408.78,186.37,408.49,186.54,408.58Z" style="fill:#263238"></path><path d="M72,391c4.46-3.49,17.29-12,31.1-12.19.16,0,.19.19,0,.21-11.18,1.59-26.38,9.07-31,12.14C72,391.26,71.86,391.11,72,391Z" style="fill:#263238"></path><path d="M272.2,191.83a41.29,41.29,0,0,1-.42,5.52c-.15,1.13-.36,2.23-.61,3.3a33.37,33.37,0,0,1-1.76,5.53,29.6,29.6,0,0,1-1.6,3.3,26.34,26.34,0,0,1-4.13,5.52,21.7,21.7,0,0,1-2.71,2.37c-.62.15-1.27.27-1.93.37A26.79,26.79,0,0,1,243.45,215a38.05,38.05,0,0,1-8.28-5.52c-.19-.16-.39-.33-.58-.51a47.21,47.21,0,0,1-7.32-8.32c-.74-1.06-1.45-2.16-2.12-3.3a54.38,54.38,0,0,1-5.49-12.91l-.24-.9c-.08-.29-.15-.57-.21-.86a47.65,47.65,0,0,1-1.28-15.89q.15-1.68.45-3.3a30.91,30.91,0,0,1,7.41-15.77,21.7,21.7,0,0,1,2-1.88c.39-.34.8-.66,1.21-1a16.71,16.71,0,0,1,1.92-.37,25.65,25.65,0,0,1,12.25,1.34,33.42,33.42,0,0,1,6.75,3.3,41.71,41.71,0,0,1,7,5.53c1.05,1,2.07,2.13,3,3.29a49.78,49.78,0,0,1,4.05,5.53c.68,1.07,1.32,2.17,1.93,3.3a53.46,53.46,0,0,1,2.57,5.52c.43,1.08.83,2.18,1.19,3.3s.64,2,.91,3.1a51.28,51.28,0,0,1,1.58,9.82C272.18,189.65,272.21,190.74,272.2,191.83Z" style="fill:#fff"></path><path d="M259.88,158H225.79v-3.29h31C257.89,155.7,258.91,156.8,259.88,158Z" style="fill:#a6a6a6"></path><path d="M265.86,166.79H225.79v-3.3h38.14C264.61,164.56,265.25,165.66,265.86,166.79Z" style="fill:#238882"></path><path d="M249.88,149.14H225.79v-1.42a21.7,21.7,0,0,1,2-1.88h15.38A33.42,33.42,0,0,1,249.88,149.14Z" style="fill:#455a64"></path><path d="M269.62,175.61h-35v-3.3h33.84C268.86,173.39,269.26,174.49,269.62,175.61Z" style="fill:#455a64"></path><rect x="234.59" y="181.14" width="15.45" height="3.3" style="fill:#a6a6a6"></rect><path d="M219.21,163.49v3.3h-1.28q.15-1.68.45-3.3Z" style="fill:#455a64"></path><rect x="219.21" y="172.31" width="9.03" height="3.3" style="fill:#a6a6a6"></rect><path d="M228.24,181.14v3.3h-8.58l-.24-.9c-.08-.29-.15-.57-.21-.86v-1.54Z" style="fill:#455a64"></path><path d="M272.2,191.83H225.79v-3.3h46.32C272.18,189.65,272.21,190.74,272.2,191.83Z" style="fill:#455a64"></path><path d="M228.24,197.35v3.3h-1c-.74-1.06-1.45-2.16-2.12-3.3Z" style="fill:#455a64"></path><path d="M271.78,197.35c-.15,1.13-.36,2.23-.61,3.3H234.59v-3.3Z" style="fill:#a6a6a6"></path><path d="M269.41,206.18a29.6,29.6,0,0,1-1.6,3.3H235.17c-.19-.16-.39-.33-.58-.51v-2.79Z" style="fill:#238882"></path><path d="M263.68,215a21.7,21.7,0,0,1-2.71,2.37c-.62.15-1.27.27-1.93.37A26.79,26.79,0,0,1,243.45,215Z" style="fill:#455a64"></path><path d="M252.75,228.15a27.41,27.41,0,0,0,4.57-1.08,25.2,25.2,0,0,0,3.17-1.32.24.24,0,0,0,.1-.05c.42-.21.84-.43,1.25-.67s.49-.28.73-.44a27.82,27.82,0,0,0,8.53-8.32c.51-.75,1-1.54,1.44-2.34v0a33.66,33.66,0,0,0,1.84-3.82c.19-.45.37-.91.53-1.36.34-.91.65-1.85.92-2.8s.53-2,.74-3,.4-2,.54-3.06a56,56,0,0,0-1.45-22c-6.53-24.91-27.35-42.9-46.52-40.12-.79.11-1.57.27-2.34.44s-1.49.4-2.23.64c-.4.14-.81.28-1.21.44l-.28.11-1,.42c-14.52,6.63-21.52,26.45-15.85,48.12C212.75,213,233.58,230.93,252.75,228.15Zm-41.38-40.87A48.07,48.07,0,0,1,210,169.89c.05-.45.1-.89.17-1.34,1.26-8.8,5.27-16.1,11.32-20.33l.36-.24c.2-.15.41-.28.62-.41l.39-.23a8.84,8.84,0,0,1,.85-.48q.51-.29,1-.51l.07,0a20.93,20.93,0,0,1,2.24-.9,17.83,17.83,0,0,1,2-.54,16.71,16.71,0,0,1,1.92-.37c16.34-2.36,34.1,13,39.65,34.21,4.28,16.38.08,31.5-9.56,38.66a21.09,21.09,0,0,1-4.37,2.53c-.26.11-.52.23-.8.33s-.59.23-.9.33a23.12,23.12,0,0,1-3.9.92C234.66,223.85,216.92,208.53,211.37,187.28Z" style="fill:#455a64"></path><path d="M259,217.74c.66-.1,1.31-.22,1.93-.37,9.64-7.16,13.84-22.28,9.56-38.66-5.55-21.25-23.31-36.57-39.65-34.21a16.71,16.71,0,0,0-1.92.37c-9.63,7.16-13.84,22.28-9.54,38.67C225,204.79,242.71,220.11,259,217.74Z" style="fill:#fff;opacity:0.4"></path><g style="opacity:0.30000000000000004"><path d="M219,160.66l46.85,6.13a52.32,52.32,0,0,0-4.45-6.94l-40.22-5.26A32.06,32.06,0,0,0,219,160.66Z" style="fill:#ebebeb"></path><path d="M225.93,147.58l26.74,3.5c-6.71-5.09-14.39-7.64-21.79-6.58a16.71,16.71,0,0,0-1.92.37A21.52,21.52,0,0,0,225.93,147.58Z" style="fill:#ebebeb"></path><path d="M218.06,165.52l50.28,6.58c-.47-1.15-1-2.29-1.5-3.38l-48.26-6.31C218.37,163.42,218.2,164.46,218.06,165.52Z" style="fill:#ebebeb"></path><path d="M232.38,206.84a41.89,41.89,0,0,0,4.09,3.72l27.94,3.66a24.85,24.85,0,0,0,2.26-2.89Z" style="fill:#ebebeb"></path><path d="M224,195.36,271,201.5a41.92,41.92,0,0,0,1.15-13.05l-53.18-7c.14.67.31,1.36.49,2A53.58,53.58,0,0,0,224,195.36Z" style="fill:#ebebeb"></path></g><path d="M251,221.48a23.12,23.12,0,0,0,3.9-.92c.31-.1.61-.22.9-.33s.54-.22.8-.33l.55-.23,8-3.75a21.81,21.81,0,0,1-2.24.9,19.35,19.35,0,0,1-2,.55c-.62.15-1.27.27-1.93.37-16.33,2.37-34.08-13-39.62-34.2-4.3-16.39-.09-31.51,9.54-38.67a21.14,21.14,0,0,1,3.83-2.3l-8,3.74-.07,0q-.51.22-1,.51a8.84,8.84,0,0,0-.85.48l-.39.23c-.21.13-.42.26-.62.41l-.36.24c-6.05,4.23-10.06,11.53-11.32,20.33-.07.45-.12.89-.17,1.34a48.07,48.07,0,0,0,1.42,17.39C216.92,208.53,234.66,223.85,251,221.48Z" style="fill:#37474f"></path><path d="M283.69,174.23c5.64,21.6-1.3,41.34-15.71,48.05L260,226c14.41-6.69,21.33-26.44,15.7-48-6.52-24.91-27.35-42.89-46.51-40.13a26.74,26.74,0,0,0-4.57,1.09,27.18,27.18,0,0,0-2.63,1.05l8-3.74a27.9,27.9,0,0,1,2.64-1,25.92,25.92,0,0,1,4.56-1.08C256.35,131.33,277.17,149.31,283.69,174.23Z" style="fill:#37474f"></path></g><g id="freepik--Device--inject-141"><rect x="162.51" y="434.1" width="130.96" height="5.87" style="fill:#455a64"></rect><rect x="162.51" y="434.1" width="65.92" height="5.87" style="fill:#263238"></rect><polygon points="225.98 439.97 353.62 439.97 371.65 353.29 244.02 353.29 225.98 439.97" style="fill:#263238"></polygon><polygon points="231.77 439.97 359.4 439.97 377.44 353.29 249.81 353.29 231.77 439.97" style="fill:#37474f"></polygon><path d="M289.84,398.57a7.51,7.51,0,0,0,7.61,8.5,9.68,9.68,0,0,0,9.4-8.5,7.51,7.51,0,0,0-7.61-8.51A9.68,9.68,0,0,0,289.84,398.57Z" style="fill:#ebebeb"></path></g></svg>